<svg width="110" height="62" viewBox="0 0 110 62" fill="none" xmlns="http://www.w3.org/2000/svg">
<circle cx="18.0976" cy="43.3245" r="18.0976" fill="#332FF7"/>
<path d="M76.5547 33.7343C78.7734 30.1835 82.1547 27.5119 86.1224 26.1747C90.0901 24.8375 94.3987 24.9174 98.3141 26.4008C102.23 27.8842 105.509 30.6794 107.595 34.31C109.681 37.9405 110.443 42.182 109.752 46.3115C109.061 50.4411 106.959 54.2033 103.805 56.9571C100.651 59.7109 96.64 61.2859 92.455 61.4137C88.2699 61.5416 84.1701 60.2144 80.8539 57.6583C77.5377 55.1022 75.2104 51.4753 74.2685 47.3956L91.9023 43.3245L76.5547 33.7343Z" fill="#332FF7"/>
<path d="M59.0554 14.605L13.0176 20.0025L45.0853 25.7175V37.7826L85.7255 40.6401L59.0554 29.2101V14.605Z" fill="#FF4735"/>
<path d="M19.3676 15.875H12.0651C11.5359 10.5833 14.7956 -0.00012207 32.0677 -0.00012207C18.6056 3.8099 17.9918 12.1708 19.3676 15.875Z" fill="#FF4735"/>
</svg>
